<?xml version="1.0" standalone="no"?>
<!DOCTYPE svg PUBLIC "-//W3C//DTD SVG 20010904//EN"
 "http://www.w3.org/TR/2001/REC-SVG-20010904/DTD/svg10.dtd">
<svg version="1.0" xmlns="http://www.w3.org/2000/svg"
 width="300.000000pt" height="300.000000pt" viewBox="0 0 300.000000 300.000000"
 preserveAspectRatio="xMidYMid meet">
<metadata>
Created by potrace 1.10, written by Peter Selinger 2001-2011
</metadata>
<g transform="translate(0.000000,300.000000) scale(0.100000,-0.100000)"
fill="#000000" stroke="none">
<path d="M1479 2793 l-15 -48 -87 -7 c-212 -18 -439 -105 -614 -237 -87 -65
-88 -67 -88 -109 0 -51 -23 -74 -70 -70 -41 3 -48 -3 -114 -91 -72 -98 -142
-232 -180 -347 -30 -92 -61 -250 -61 -314 0 -36 -1 -37 -60 -55 -33 -10 -60
-21 -60 -24 0 -3 26 -14 58 -23 l58 -17 12 -103 c7 -57 23 -146 37 -198 33
-124 126 -312 209 -421 61 -81 66 -85 98 -81 42 5 73 -26 73 -71 0 -27 10 -39
75 -89 88 -68 254 -156 363 -192 78 -26 193 -50 300 -62 l57 -6 13 -46 c15
-49 18 -48 36 10 12 35 14 37 69 43 264 28 500 120 677 262 50 41 60 54 60 80
0 45 31 76 73 71 31 -4 37 0 92 74 148 196 222 380 253 627 l13 104 49 14 c28
8 54 18 58 22 4 4 -20 16 -53 26 -59 18 -60 19 -60 55 0 64 -31 222 -61 312
-47 144 -128 292 -216 395 -37 44 -47 51 -66 44 -47 -18 -108 46 -78 83 15 18
-39 67 -157 144 -161 105 -364 176 -547 190 l-89 7 -16 47 c-8 27 -18 48 -21
48 -3 0 -12 -21 -20 -47z m40 -180 c7 -65 34 -269 61 -453 27 -184 50 -345 52
-358 3 -21 21 -9 168 109 183 146 248 200 363 302 42 38 77 66 77 62 0 -3 -13
-25 -28 -48 -28 -41 -239 -426 -263 -479 -11 -26 -46 -38 -61 -22 -6 5 140
252 221 374 37 55 9 30 -186 -167 -125 -127 -251 -252 -279 -278 l-52 -46 -34
17 -35 16 -6 112 c-4 61 -7 238 -7 394 0 181 -4 282 -10 282 -6 0 -10 -91 -10
-252 0 -139 -3 -317 -7 -396 l-6 -143 -36 -15 -35 -15 -279 278 c-154 153
-268 262 -254 243 47 -64 245 -399 239 -404 -3 -3 -15 -6 -26 -6 -15 0 -27 13
-41 42 -35 73 -256 472 -271 489 -8 8 -14 19 -14 23 0 4 33 -21 73 -56 77 -68
293 -247 442 -366 82 -66 90 -70 93 -50 2 13 25 172 52 353 27 182 55 385 62
453 7 67 15 122 18 122 3 0 12 -53 19 -117z m-67 69 c7 -24 -20 -25 -44 -2
-16 15 -16 16 11 18 21 2 30 -3 33 -16z m178 7 c0 -5 -5 -7 -10 -4 -6 4 -22
-1 -37 -10 -21 -14 -27 -15 -34 -4 -15 25 -10 29 36 29 25 0 45 -5 45 -11z
m-210 -57 c0 -15 -15 -20 -87 -31 -231 -33 -447 -145 -627 -325 -171 -171
-275 -374 -314 -612 -14 -85 -20 -104 -34 -104 -15 0 -17 7 -12 48 59 516 449
934 959 1027 100 19 115 18 115 -3z m348 -13 c422 -97 780 -464 866 -887 8
-37 17 -91 20 -119 6 -48 5 -53 -12 -53 -16 0 -21 10 -26 61 -19 163 -87 348
-183 492 -61 92 -217 249 -309 309 -144 96 -336 169 -479 184 -56 6 -65 10
-65 26 0 18 5 19 53 13 28 -4 89 -15 135 -26z m-803 -54 c-21 -13 -42 -22 -45
-18 -3 3 0 8 6 10 6 2 20 10 30 18 10 8 26 14 34 14 8 0 -3 -11 -25 -24z m468
-27 c-7 -62 -15 -75 -33 -53 -10 12 -10 21 -1 41 6 14 11 34 11 44 0 11 7 20
15 20 11 0 13 -11 8 -52z m217 18 c0 -8 5 -16 12 -18 8 -3 5 -12 -10 -28 -18
-19 -22 -21 -22 -7 0 9 -7 17 -15 17 -19 0 -19 6 3 29 21 23 32 26 32 7z m425
2 c14 -6 25 -15 25 -20 0 -5 4 -7 9 -3 5 3 15 -1 23 -8 7 -7 29 -23 49 -35 36
-22 89 -67 89 -76 0 -3 -34 19 -76 49 -42 30 -79 55 -83 55 -4 0 -22 11 -41
25 -37 27 -35 32 5 13z m-746 -48 c39 -27 71 -88 71 -132 0 -31 -2 -29 -31 29
-31 65 -62 93 -126 118 l-38 15 47 -4 c27 -2 59 -13 77 -26z m421 24 c0 -3
-14 -17 -30 -31 -116 -98 -76 -292 68 -333 49 -13 66 -13 107 4 19 8 35 13 35
11 0 -16 -26 -56 -39 -60 -20 -6 -51 -56 -51 -82 0 -11 -25 -34 -66 -60 -37
-24 -69 -43 -73 -43 -3 0 -14 48 -23 108 -10 59 -21 118 -24 131 -7 23 -7 23
20 6 34 -22 47 -11 18 16 -55 51 -77 125 -60 204 8 38 21 60 53 93 38 37 65
53 65 36z m-528 -34 c21 -6 40 -16 44 -21 4 -7 0 -9 -12 -6 -11 3 -41 8 -69
11 -32 3 -19 -1 34 -12 47 -10 86 -23 89 -30 4 -14 -50 -8 -160 18 -54 13 -68
19 -53 24 11 4 27 11 35 16 20 12 48 12 92 0z m648 5 c0 -3 -9 -22 -19 -43
-24 -47 -56 -77 -104 -97 l-37 -15 0 32 c0 45 19 78 59 105 30 20 101 32 101
18z m-265 -54 c-9 -30 -22 -26 -27 9 -5 37 1 45 20 26 9 -8 11 -22 7 -35z
m-775 32 c-8 -3 -26 -17 -40 -30 -29 -28 -60 -47 -60 -37 0 15 76 73 95 73 14
0 16 -2 5 -6z m360 -47 c52 -14 106 -26 119 -28 32 -4 40 -28 9 -28 -12 0 -69
10 -125 21 l-101 22 -41 -20 c-45 -22 -46 -22 -30 10 20 38 42 57 58 52 9 -2
59 -16 111 -29z m801 24 c10 -6 19 -15 19 -21 0 -18 -52 -79 -62 -73 -5 3 -3
13 6 23 9 10 13 21 9 24 -10 10 -10 57 0 57 4 0 17 -5 28 -10z m-1016 -61 c-3
-8 -26 -27 -50 -44 -25 -16 -45 -37 -45 -46 0 -23 -26 -31 -41 -13 -6 8 -10
16 -8 18 26 24 142 106 145 103 3 -2 2 -10 -1 -18z m1135 -38 c30 -23 59 -41
64 -41 5 0 1 -9 -8 -19 -19 -21 -50 -17 -42 5 3 8 -13 26 -42 46 -47 32 -62
46 -62 61 0 11 27 -5 90 -52z m-882 9 c35 -11 77 -20 93 -20 26 0 29 -3 29
-31 0 -31 -1 -31 -39 -25 -21 3 -70 19 -109 36 -86 37 -146 39 -179 8 -16 -15
-23 -17 -23 -7 0 22 13 36 45 54 35 19 89 14 183 -15z m647 9 c0 -7 -8 -15
-17 -17 -18 -3 -25 18 -11 32 10 10 28 1 28 -15z m125 -24 c0 -130 -165 -201
-264 -114 -33 29 -64 89 -46 89 5 0 11 -9 15 -20 9 -28 60 -68 104 -81 74 -22
171 48 171 124 0 15 5 27 10 27 6 0 10 -11 10 -25z m-170 -30 c0 -7 -6 -17
-12 -23 -10 -8 -13 -2 -15 25 -1 29 1 32 13 22 8 -6 14 -17 14 -24z m-609 -26
c47 -21 94 -39 104 -39 14 0 15 -3 6 -14 -15 -18 -60 -7 -146 36 -59 29 -59
29 -30 4 36 -31 105 -66 128 -66 22 0 22 -16 1 -24 -21 -8 -98 26 -149 66 -74
58 -70 55 -57 31 14 -25 83 -83 127 -106 l30 -16 -29 -1 c-38 0 -86 31 -137
88 -34 39 -38 42 -25 16 8 -17 28 -45 44 -62 17 -18 24 -32 17 -32 -16 0 -81
71 -90 99 -12 40 36 74 90 65 17 -3 69 -23 116 -45z m-258 5 c10 -10 -72 -86
-84 -78 -7 4 5 22 27 45 39 40 46 44 57 33z m1131 -33 c26 -26 34 -41 26 -46
-13 -8 -92 63 -84 77 9 14 19 9 58 -31z m-704 -56 c-12 -66 -28 -76 -51 -34
-8 15 -5 26 10 46 12 14 21 31 21 37 0 7 6 18 12 24 19 19 22 -1 8 -73z m-872
-44 c-34 -49 -67 -90 -71 -91 -9 0 29 66 50 88 7 8 18 23 24 34 15 27 52 69
57 64 2 -3 -25 -45 -60 -95z m472 66 c0 -8 -11 -24 -24 -36 -32 -30 -46 -8
-15 25 25 27 39 31 39 11z m1059 -11 c13 -14 20 -29 16 -35 -9 -15 -64 30 -57
47 6 18 16 15 41 -12z m420 -2 c12 -15 21 -31 21 -37 0 -13 -38 21 -51 45 -15
28 7 22 30 -8z m-1739 -14 c0 -11 -6 -20 -13 -20 -19 0 -27 10 -20 26 8 21 33
17 33 -6z m1568 -3 c2 -10 -3 -17 -12 -17 -18 0 -29 16 -21 31 9 14 29 6 33
-14z m-1263 -37 c0 -8 -8 -16 -17 -18 -13 -2 -18 3 -18 18 0 15 5 20 18 18 9
-2 17 -10 17 -18z m968 14 c9 -10 -4 -34 -18 -34 -17 0 -28 17 -20 30 7 11 28
13 38 4z m360 -36 c20 5 20 4 8 -11 -11 -14 -11 -20 0 -34 12 -15 12 -16 -8
-11 -17 5 -23 1 -26 -16 l-4 -21 -8 22 c-4 12 -13 19 -19 17 -8 -3 -13 6 -13
26 0 17 6 30 13 30 6 0 15 8 20 18 7 15 8 15 11 -4 3 -17 9 -21 26 -16z m166
-18 c11 -22 17 -40 13 -40 -4 0 -17 18 -29 40 -12 22 -18 40 -13 40 4 0 17
-18 29 -40z m-1735 21 c3 -4 -21 -11 -54 -14 -34 -3 -75 -14 -95 -26 -19 -11
-35 -17 -35 -12 0 12 32 39 60 50 31 12 117 14 124 2z m541 -1 c4 -6 4 -18 1
-27 -6 -14 -9 -14 -26 2 -11 10 -20 22 -20 27 0 12 38 10 45 -2z m935 0 c0 -5
-16 -10 -36 -10 -21 0 -33 4 -29 10 3 6 19 10 36 10 16 0 29 -4 29 -10z
m-1098 -36 c9 -9 19 -27 23 -41 5 -20 9 -23 20 -13 11 9 19 8 37 -4 43 -30 42
-16 -2 29 -39 39 -41 45 -22 45 12 0 37 -14 57 -31 35 -32 36 -32 29 -93 -4
-33 -8 -63 -10 -65 -2 -2 -35 16 -73 40 -57 36 -70 49 -71 70 0 15 -12 37 -30
54 -16 16 -30 32 -30 37 0 10 51 -10 72 -28z m-76 -19 c15 -20 25 -38 22 -40
-7 -8 -78 48 -78 62 0 24 29 13 56 -22z m864 21 c0 -14 -68 -71 -75 -64 -3 2
7 21 21 41 25 37 54 49 54 23z m283 -42 c-3 -8 -12 -14 -19 -14 -20 0 -30 30
-13 40 17 11 40 -7 32 -26z m-1440 20 c9 -9 -4 -34 -18 -34 -14 0 -27 25 -18
34 4 3 12 6 18 6 6 0 14 -3 18 -6z m1597 -29 c-7 -8 -9 -15 -4 -15 5 0 1 -5
-8 -11 -10 -5 -18 -18 -18 -27 -1 -15 -2 -15 -11 2 -9 15 -7 23 12 41 27 26
49 34 29 10z m-1673 -16 c41 -20 83 -64 83 -88 0 -6 -21 6 -47 26 -53 40 -102
63 -133 63 -12 0 -18 5 -15 10 10 17 66 11 112 -11z m129 -35 c8 -20 14 -48
12 -63 -3 -23 -6 -20 -30 28 -15 30 -25 58 -22 63 11 17 26 7 40 -28z m1331
20 c8 -20 -8 -36 -26 -25 -15 10 -8 41 9 41 6 0 13 -7 17 -16z m77 -15 c-8
-14 -34 -11 -34 4 0 8 3 17 7 20 9 9 34 -13 27 -24z m-1826 -2 c2 -12 -3 -17
-17 -17 -12 0 -21 6 -21 13 0 31 32 34 38 4z m2160 0 c2 -12 -3 -17 -17 -17
-12 0 -21 6 -21 13 0 31 32 34 38 4z m-1922 -5 c48 -27 143 -96 148 -108 2 -6
1 -17 -4 -24 -6 -10 -16 -6 -43 14 -49 37 -164 85 -207 86 l-35 1 29 15 c19
11 42 14 65 11 29 -5 32 -4 17 5 -10 5 -34 8 -52 5 -20 -4 -32 -2 -29 4 10 15
77 10 111 -9z m1489 -32 c3 -5 -1 -10 -10 -10 -9 0 -13 -5 -10 -10 4 -6 11 -8
16 -5 5 4 9 -1 9 -9 0 -9 -4 -16 -9 -16 -16 0 -31 27 -25 44 7 18 20 21 29 6z
m263 -16 c12 -8 22 -26 22 -40 0 -27 -32 -64 -55 -64 -9 0 -28 -8 -42 -17 -29
-19 -27 -8 6 31 15 18 15 19 -4 12 -34 -12 -105 -19 -105 -10 1 5 23 19 50 32
28 13 50 30 50 37 0 14 26 34 45 35 6 0 21 -7 33 -16z m-132 -5 c10 -17 -13
-36 -27 -22 -12 12 -4 33 11 33 5 0 12 -5 16 -11z m-1604 -48 c75 -36 124 -74
115 -88 -5 -7 -32 2 -78 25 -63 33 -79 36 -149 37 -61 0 -77 3 -75 14 1 8 19
21 41 28 l39 13 -38 -5 c-25 -2 -35 0 -31 7 12 18 109 1 176 -31z m225 13 c3
-10 1 -30 -4 -45 -10 -25 -9 -29 6 -29 11 0 29 -25 53 -73 l36 -73 -90 -18
c-58 -11 -94 -14 -100 -8 -7 7 -22 3 -44 -10 -32 -19 -64 -19 -64 -1 0 4 18
18 40 31 66 38 99 93 136 230 5 17 23 15 31 -4z m1213 -52 c22 -80 61 -137
115 -170 25 -15 45 -31 45 -35 0 -19 -33 -17 -66 3 -26 14 -39 18 -44 10 -5
-8 -32 -6 -99 6 -50 10 -90 20 -89 23 48 100 74 141 89 141 15 0 16 4 6 29
-11 31 -3 65 15 59 6 -2 19 -32 28 -66z m113 54 c8 -21 -4 -57 -17 -53 -6 2
-13 11 -14 21 -7 36 19 63 31 32z m-903 -26 c0 -34 -19 -40 -45 -14 -15 15
-14 18 7 29 34 19 38 18 38 -15z m355 15 c18 -14 18 -16 2 -33 -16 -15 -19
-15 -27 -2 -12 18 -13 50 -2 50 4 0 16 -7 27 -15z m-977 -90 c29 -16 52 -32
52 -36 0 -18 -19 -17 -56 2 -31 16 -54 19 -112 17 -63 -2 -75 0 -84 16 -16 28
8 38 83 33 48 -3 80 -12 117 -32z m1122 -75 c-28 -56 -50 -103 -48 -105 5 -5
818 -134 891 -141 37 -4 67 -10 67 -14 0 -4 -30 -10 -67 -14 -74 -8 -724 -109
-840 -131 -70 -14 -74 -13 -135 12 -104 42 -99 37 -80 83 l17 40 425 1 c243 1
401 5 370 9 -30 5 -104 9 -165 9 -60 1 -218 8 -350 16 -132 8 -250 15 -263 15
-15 0 -26 9 -32 26 -10 24 -1 35 121 165 73 77 134 137 136 135 2 -2 -19 -50
-47 -106z m386 89 c3 -6 1 -16 -5 -22 -9 -9 -14 -8 -21 3 -9 15 -4 30 10 30 5
0 12 -5 16 -11z m-1079 -32 c30 -66 43 -99 43 -112 0 -15 -24 -21 -125 -31
-70 -7 -70 -7 -52 14 15 16 24 18 53 12 29 -7 38 -4 54 13 25 26 25 53 1 94
-11 17 -17 33 -14 36 9 10 30 -4 40 -26z m1357 -25 c-26 -34 -99 -72 -141 -72
-43 0 -113 29 -113 46 0 17 1 17 36 -1 37 -19 117 -19 152 -1 15 8 38 26 51
40 31 33 41 25 15 -12z m-1845 -3 c43 -9 89 -37 65 -40 -5 0 -24 -2 -43 -4
-19 -2 -48 3 -64 11 -16 9 -26 11 -23 5 10 -15 -5 -13 -26 3 -24 17 -23 24 5
29 12 2 25 5 29 6 4 0 29 -4 57 -10z m707 -234 l-14 -40 -158 -2 c-593 -9
-713 -13 -744 -23 -36 -11 -200 -4 -200 9 0 3 62 15 137 25 76 10 283 42 460
72 254 42 329 51 350 43 27 -10 27 -10 8 10 -23 27 -11 27 22 1 39 -30 50 -24
18 10 -38 39 -25 39 20 -1 52 -46 43 -27 -25 52 -33 38 -60 73 -60 77 0 4 45
-38 100 -93 l100 -100 -14 -40z m-826 180 c0 -19 -20 -29 -32 -17 -8 8 -7 16
2 26 14 17 30 12 30 -9z m85 -26 c4 -6 5 -13 2 -15 -7 -8 -57 7 -57 17 0 13
47 11 55 -2z m1277 -13 c9 -4 25 -3 36 3 16 8 25 6 48 -14 24 -21 26 -25 10
-25 -10 0 -35 4 -55 10 -20 5 -49 12 -64 15 -15 3 -25 10 -22 14 5 10 19 9 47
-3z m648 6 c0 -25 -88 -72 -135 -72 -45 0 -29 27 19 32 25 3 57 15 73 26 30
23 43 27 43 14z m-2033 -22 c21 -11 50 -20 65 -20 18 0 28 -5 28 -15 0 -9 -9
-15 -23 -15 -28 0 -110 41 -115 58 -5 16 2 15 45 -8z m160 -24 c-4 -9 -11 -16
-17 -16 -17 0 -24 31 -9 41 18 11 34 -5 26 -25z m1681 7 c-2 -10 -10 -18 -18
-18 -8 0 -16 8 -18 18 -2 12 3 17 18 17 15 0 20 -5 18 -17z m208 -34 c3 -6 2
-15 -2 -19 -12 -12 -38 5 -30 19 9 14 23 14 32 0z m-2031 -29 c18 -7 18 -8 -7
-15 -32 -8 -58 3 -37 16 16 10 18 10 44 -1z m1983 -11 c2 -13 -3 -15 -23 -12
-14 3 -28 10 -32 16 -3 6 -1 7 5 3 7 -4 12 -2 12 4 0 17 34 7 38 -11z m-962
-23 c62 -53 16 -155 -65 -142 -48 7 -75 37 -75 82 0 44 40 84 84 84 16 0 41
-11 56 -24z m-193 -96 c4 -16 -2 -24 -29 -35 -20 -8 -50 -25 -67 -37 l-32 -22
33 37 c51 60 37 57 -26 -6 -64 -63 -96 -79 -41 -19 63 67 64 78 1 17 -34 -33
-62 -55 -62 -49 0 6 14 23 31 40 17 16 35 38 41 49 5 11 -16 -6 -47 -38 -62
-62 -91 -71 -34 -9 60 64 64 80 5 18 -66 -67 -90 -69 -27 -1 22 24 41 48 41
52 -1 5 -26 -19 -57 -52 -63 -68 -68 -58 -8 15 44 53 44 53 211 58 54 2 62 0
67 -18z m-623 -25 c-13 -14 -28 -25 -34 -25 -5 0 3 13 19 30 16 16 31 28 33
25 3 -3 -5 -16 -18 -30z m40 0 c-13 -14 -28 -25 -34 -25 -5 0 3 13 19 30 16
16 31 28 33 25 3 -3 -5 -16 -18 -30z m-254 14 c4 -8 9 -7 15 2 7 11 12 10 24
-7 17 -26 148 -58 400 -99 195 -32 200 -34 183 -58 -13 -17 -16 -17 -43 -3
-19 10 -33 12 -39 6 -12 -12 -46 -13 -46 -2 0 23 -68 43 -162 47 -38 2 -73 7
-79 11 -7 4 -30 9 -53 11 -22 2 -57 7 -76 9 -19 3 -60 7 -91 7 -38 1 -63 8
-76 19 -13 12 -23 14 -33 8 -23 -15 -30 -12 -30 10 0 21 35 41 56 33 7 -2 15
0 19 6 8 14 22 14 31 0z m289 -19 c-16 -16 -33 -30 -39 -30 -5 0 3 14 19 30
16 17 33 30 39 30 5 0 -3 -13 -19 -30z m30 -10 c-16 -16 -31 -28 -34 -25 -2 3
8 19 24 35 16 16 31 28 34 25 2 -3 -8 -19 -24 -35z m231 31 c33 27 20 -1 -21
-47 -24 -27 -44 -44 -45 -38 0 6 11 21 25 34 14 13 25 28 25 34 0 5 -17 -6
-37 -25 -21 -20 -48 -36 -60 -37 -28 -1 -28 0 -1 24 21 19 21 19 14 -1 -4 -13
9 -4 36 23 24 23 45 37 46 32 3 -7 9 -7 18 1z m-191 -31 c-16 -16 -33 -30 -39
-30 -5 0 3 14 19 30 16 17 33 30 39 30 5 0 -3 -13 -19 -30z m30 -10 c-16 -16
-31 -28 -34 -25 -2 3 8 19 24 35 16 16 31 28 34 25 2 -3 -8 -19 -24 -35z m59
28 c-13 -24 -47 -58 -58 -58 -5 0 5 16 24 35 35 37 46 44 34 23z m-582 -120
c28 -177 98 -346 199 -485 136 -186 405 -379 545 -391 97 -8 177 50 208 149
l14 44 1 -43 c2 -79 -52 -151 -131 -178 -32 -10 -30 -11 57 -27 50 -10 97 -17
106 -17 16 0 34 -28 25 -37 -10 -11 -169 21 -263 52 -123 41 -214 86 -311 155
-251 177 -421 434 -475 717 -29 146 -29 163 -9 163 15 0 20 -16 34 -102z
m2268 95 c0 -38 -35 -208 -56 -275 -118 -372 -440 -677 -817 -773 -51 -13
-118 -26 -149 -30 -53 -7 -58 -6 -58 12 0 16 12 21 86 31 489 71 893 488 949
980 6 52 10 62 26 62 10 0 19 -3 19 -7z m-140 -12 c0 -19 -28 -30 -64 -24 -20
3 -34 9 -29 13 17 17 93 26 93 11z m-595 -361 c44 -47 113 -121 154 -165 58
-62 69 -71 51 -40 -13 22 -59 101 -102 175 -44 74 -93 157 -109 183 -35 58
-36 67 -6 67 19 0 41 -35 150 -242 70 -134 139 -263 154 -288 31 -53 49 -67
-157 117 -74 66 -198 172 -275 237 -118 99 -141 114 -147 99 -8 -22 -128 -859
-128 -896 0 -15 -4 -27 -9 -27 -5 0 -12 35 -16 78 -4 42 -15 129 -25 192 -16
103 -16 117 -2 133 8 9 20 17 26 17 6 0 5 -5 -2 -12 -15 -15 -16 -32 -2 -23
16 10 12 -6 -7 -29 -17 -20 -17 -20 0 -7 16 12 17 9 18 -50 l2 -64 8 45 c4 25
8 219 8 433 l1 387 23 0 c12 0 30 7 41 15 17 13 28 4 145 -118 70 -73 162
-170 206 -217z m-476 327 l32 -14 -72 -84 c-40 -46 -134 -135 -208 -198 -114
-96 -364 -313 -381 -331 -3 -3 -18 -16 -34 -30 l-29 -25 26 45 c15 25 84 154
155 287 108 207 130 243 150 243 12 0 22 -4 22 -9 0 -9 -188 -334 -220 -381
-44 -64 -38 -69 16 -10 145 160 495 520 505 520 4 0 21 -6 38 -13z m876 3 c-3
-5 -21 -10 -38 -10 -24 0 -28 3 -17 10 20 13 63 13 55 0z m241 -1 c10 -17 -13
-36 -27 -22 -12 12 -4 33 11 33 5 0 12 -5 16 -11z m-2084 -11 c6 -17 -14 -37
-29 -31 -21 8 -16 43 6 43 11 0 21 -6 23 -12z m763 -45 c-62 -79 -57 -89 7
-14 28 34 55 61 60 61 11 0 2 -11 -116 -153 -50 -59 -92 -105 -94 -103 -9 10
85 174 125 217 62 67 73 62 18 -8z m-635 22 c0 -9 -9 -15 -23 -15 -12 0 -39
-9 -60 -19 -37 -19 -59 -14 -34 8 19 15 79 40 100 41 9 0 17 -7 17 -15z m1870
-8 c25 -12 44 -28 43 -35 -2 -6 6 -12 18 -12 14 0 19 -5 17 -17 -5 -26 -27
-27 -37 -1 -9 25 -56 53 -103 63 -16 3 -28 10 -28 15 0 17 44 11 90 -13z
m-1800 -7 c0 -21 -24 -28 -35 -10 -8 14 3 30 21 30 8 0 14 -9 14 -20z m1323
-5 c-24 -32 -38 -37 -68 -23 -22 10 -29 8 -50 -12 -31 -29 -31 -39 0 -100 14
-28 22 -50 18 -50 -8 0 -165 162 -160 166 1 1 38 5 82 8 44 4 94 11 110 16 17
5 41 11 55 13 14 2 26 5 28 6 2 0 -5 -10 -15 -24z m352 5 c0 -8 -8 -16 -17
-18 -13 -2 -18 3 -18 18 0 15 5 20 18 18 9 -2 17 -10 17 -18z m-65 -15 c0 -8
-9 -17 -21 -20 -29 -9 -84 -60 -109 -99 -11 -18 -26 -60 -33 -92 -9 -38 -19
-59 -28 -59 -15 0 -18 47 -5 78 6 13 3 17 -13 17 -16 0 -29 17 -56 70 -19 38
-35 72 -35 75 0 3 12 5 28 5 15 1 56 7 92 15 56 12 66 12 73 -1 7 -12 14 -10
44 10 36 25 63 25 63 1z m-1510 -5 c24 -17 30 -18 37 -6 7 12 21 11 98 -4 50
-10 91 -19 93 -19 1 -1 -14 -32 -33 -71 -25 -49 -41 -70 -54 -70 -16 0 -17 -4
-8 -40 8 -29 8 -43 0 -51 -16 -16 -33 -2 -33 25 0 72 -76 190 -140 216 -16 7
-30 19 -30 26 0 20 38 17 70 -6z m-302 -37 c-2 -10 -10 -18 -18 -18 -8 0 -16
8 -18 18 -2 12 3 17 18 17 15 0 20 -5 18 -17z m931 -33 c-18 -22 -36 -40 -41
-40 -11 0 54 80 65 80 4 0 -7 -18 -24 -40z m-703 11 c40 -18 61 -37 51 -47 -3
-3 -20 4 -38 15 -37 23 -110 28 -155 11 -14 -6 -39 -24 -55 -42 -36 -38 -45
-33 -18 11 23 37 88 71 139 71 19 0 54 -9 76 -19z m1777 -22 c25 -27 39 -88
17 -74 -5 3 -10 12 -10 20 0 14 -65 75 -80 75 -6 0 -10 5 -10 11 0 20 54 -1
83 -32z m-1013 -44 c0 -39 -4 -65 -11 -65 -5 0 -8 4 -4 9 3 5 0 13 -6 17 -6 3
-23 -6 -38 -21 l-26 -28 30 18 30 18 -24 -27 c-14 -14 -27 -26 -31 -26 -16 0
-5 37 18 63 31 32 11 37 -22 4 -20 -20 -22 -31 -20 -105 2 -45 6 -87 9 -92 3
-6 1 -10 -4 -10 -6 0 -11 12 -11 28 0 47 -63 126 -84 105 -3 -3 -6 -2 -6 4 0
9 55 63 65 63 7 0 38 27 83 72 20 20 40 37 45 37 4 1 7 -28 7 -64z m938 33
c39 -24 72 -84 72 -133 0 -44 -12 -39 -51 23 -22 35 -29 41 -29 25 0 -12 16
-42 35 -67 30 -40 38 -76 16 -76 -18 0 -91 115 -91 145 0 8 -4 15 -10 15 -28
0 10 -96 59 -149 25 -27 29 -36 20 -48 -10 -12 -18 -8 -51 24 -48 46 -78 108
-78 157 0 22 -4 35 -10 31 -15 -9 -12 -71 6 -113 8 -20 33 -58 55 -84 36 -44
38 -48 21 -57 -15 -8 -25 -3 -54 27 -95 98 -104 217 -22 281 32 25 23 28 -16
5 -41 -25 -61 -67 -61 -128 0 -59 15 -98 64 -160 30 -38 30 -38 6 -31 -92 28
-140 135 -103 229 6 15 4 17 -7 11 -7 -5 -4 6 8 26 31 49 95 80 147 73 22 -4
56 -15 74 -26z m-1818 -41 c0 -10 -39 -47 -49 -47 -6 0 -11 -7 -11 -15 0 -8
-4 -15 -10 -15 -5 0 -10 7 -10 15 0 8 4 15 9 15 5 0 11 9 14 21 3 12 10 18 16
14 6 -3 11 -1 11 4 0 6 7 11 15 11 8 0 15 -2 15 -3z m55 -74 c2 -6 22 -14 45
-18 48 -8 46 -16 -7 -24 -34 -6 -38 -10 -44 -44 -9 -53 -16 -55 -26 -5 -6 31
-14 44 -28 46 -11 1 -31 5 -45 9 -22 5 -20 7 20 17 42 11 45 14 54 56 l9 45
10 -35 c5 -19 11 -40 12 -47z m163 37 l22 -30 -21 -21 -21 -21 -19 21 c-10 11
-19 23 -19 26 0 6 31 55 34 55 1 0 12 -13 24 -30z m905 -38 c18 -16 24 -37 7
-27 -6 4 -22 -1 -35 -9 -24 -16 -25 -16 -25 8 0 55 13 62 53 28z m-293 -37
c-13 -14 -19 -25 -13 -25 6 0 16 7 23 15 7 9 15 13 18 10 6 -6 -38 -55 -49
-55 -4 0 -7 10 -7 23 1 22 37 71 46 62 3 -3 -5 -16 -18 -30z m-644 -32 c11
-26 11 -36 1 -56 -13 -29 -50 -62 -54 -50 -2 6 -13 8 -25 5 -15 -3 -19 -1 -14
7 4 6 11 9 15 6 14 -8 63 44 57 60 -3 8 -9 22 -12 30 -9 22 22 19 32 -2z m540
-75 c8 -46 14 -100 14 -120 0 -51 -42 -91 -57 -53 -3 9 2 24 11 34 17 19 22
61 7 61 -5 0 -21 -16 -35 -35 -31 -40 -76 -49 -76 -15 0 11 7 20 15 20 14 0
97 81 90 88 -2 2 -17 -4 -34 -13 -28 -14 -32 -14 -37 0 -8 19 -24 10 -24 -14
0 -23 -32 -64 -72 -92 l-31 -23 7 29 c4 15 20 40 37 56 19 17 29 37 29 56 1
24 10 34 68 69 37 22 69 39 71 38 2 -2 10 -41 17 -86z m456 47 c56 -33 68 -44
68 -67 0 -18 13 -39 40 -64 48 -46 51 -60 8 -38 -49 24 -78 55 -78 81 0 13 -4
23 -10 23 -5 0 -10 -7 -10 -15 0 -19 -5 -19 -36 1 -38 25 -40 10 -4 -34 22
-28 54 -50 103 -72 40 -18 84 -41 100 -52 59 -42 89 -153 58 -211 -21 -39 -30
-33 -18 11 25 95 -21 162 -158 227 -99 47 -146 93 -148 143 -2 58 3 114 11
110 4 -1 37 -21 74 -43z m-327 7 c-6 -4 -17 -16 -25 -27 -15 -20 -14 -20 8 -1
33 29 36 14 3 -18 l-28 -27 -1 28 c0 26 36 69 48 57 2 -3 0 -8 -5 -12z m-708
-8 c7 -18 -17 -38 -31 -24 -11 11 -1 40 14 40 6 0 13 -7 17 -16z m110 -19 c7
-20 -2 -29 -21 -22 -9 4 -13 13 -10 22 8 19 23 19 31 0z m-407 -9 c0 -20 -19
-31 -32 -18 -6 6 -7 15 -4 21 10 16 36 13 36 -3z m240 -11 c0 -7 -10 -17 -22
-21 -13 -3 -31 -13 -41 -22 -13 -11 -21 -12 -28 -5 -15 15 -1 35 20 28 20 -6
65 28 53 40 -4 5 -1 5 6 1 6 -4 12 -13 12 -21z m1918 8 c-2 -10 -10 -18 -18
-18 -8 0 -16 8 -18 18 -2 12 3 17 18 17 15 0 20 -5 18 -17z m-1153 -33 c-16
-16 -31 -28 -33 -25 -7 7 39 55 52 55 5 0 -3 -13 -19 -30z m-636 -14 c9 -10 8
-16 -4 -26 -19 -16 -41 1 -32 24 8 20 21 20 36 2z m287 -31 c-27 -35 -56 -46
-56 -22 0 14 71 70 78 62 3 -2 -7 -20 -22 -40z m839 8 c35 -33 38 -38 20 -41
-13 -3 -29 7 -47 29 -50 60 -33 67 27 12z m-550 -24 c5 -58 33 -314 40 -362 3
-20 3 -42 0 -47 -10 -17 -44 32 -37 55 13 51 8 100 -14 118 -12 9 -27 17 -33
17 -14 0 -31 33 -31 60 0 11 11 31 25 43 27 24 33 45 34 121 1 59 11 56 16 -5z
m62 14 c-14 -15 -30 -24 -34 -20 -4 5 6 19 22 32 39 30 47 22 12 -12z m-913
-97 c69 -89 76 -103 51 -88 -20 11 -115 141 -115 157 0 7 -7 18 -15 25 -8 7
-12 17 -8 23 4 6 9 2 14 -10 4 -11 37 -59 73 -107z m155 99 c6 3 11 2 11 -4 0
-5 -5 -13 -11 -17 -8 -4 -8 -9 0 -17 18 -18 13 -31 -6 -16 -13 11 -17 11 -20
2 -3 -7 -9 -13 -15 -13 -6 0 -8 6 -5 14 3 8 -1 17 -9 20 -19 7 -18 26 1 26 8
0 15 8 15 18 1 16 2 16 15 -2 7 -10 18 -15 24 -11z m1541 -10 c0 -19 -20 -29
-32 -17 -15 15 -2 43 17 36 8 -3 15 -12 15 -19z m-777 -22 c-19 -27 -21 -33
-7 -20 32 26 38 20 12 -12 -29 -37 -35 -38 -36 -3 0 17 9 35 26 49 37 31 37
29 5 -14z m343 -91 c58 -29 114 -81 114 -104 0 -6 3 -9 6 -6 3 4 -2 20 -10 37
-15 27 -15 30 -1 24 9 -3 25 -24 37 -46 24 -48 21 -121 -7 -158 -9 -13 -15
-17 -13 -9 3 8 8 26 12 40 5 20 3 19 -8 -5 -13 -29 -56 -76 -56 -62 0 4 -17
-2 -37 -13 -21 -11 -55 -20 -76 -20 -44 0 -42 15 4 24 32 6 103 45 96 52 -2 2
-21 -3 -42 -12 -21 -9 -60 -19 -87 -23 -38 -6 -51 -5 -63 9 -14 15 -9 17 60
28 41 6 89 18 107 27 l33 15 -40 -5 c-22 -2 -75 -7 -117 -10 l-78 -7 0 33 0
32 103 -6 c91 -5 98 -4 67 7 -19 7 -65 16 -102 20 -59 7 -68 10 -68 27 0 15 5
19 18 15 9 -2 44 -7 77 -11 33 -4 75 -13 94 -21 19 -8 36 -12 39 -10 9 10 -85
49 -147 60 -65 12 -66 13 -63 42 5 38 6 38 34 21 12 -9 50 -25 82 -36 33 -11
69 -30 81 -41 34 -32 42 -23 9 11 -16 17 -51 42 -79 56 -85 43 -105 61 -105
94 l0 30 33 -34 c17 -19 60 -48 93 -65z m564 87 c0 -16 -65 -39 -110 -39 -47
0 -55 20 -7 21 25 0 83 15 115 28 1 1 2 -4 2 -10z m157 -17 c-10 -10 -17 -23
-17 -28 0 -13 -80 -104 -92 -104 -5 0 14 28 42 62 29 35 55 68 57 75 3 7 10
13 16 13 5 0 3 -8 -6 -18z m-1727 -12 c0 -5 -16 -10 -35 -10 -19 0 -35 5 -35
10 0 6 16 10 35 10 19 0 35 -4 35 -10z m248 -13 c2 -12 -3 -17 -17 -17 -15 0
-21 6 -21 21 0 25 33 22 38 -4z m966 8 c3 -9 -1 -18 -10 -22 -19 -7 -39 11
-30 26 10 16 33 13 40 -4z m-1017 -73 c-8 -10 -15 -8 -35 11 -34 34 -19 54 17
25 21 -17 26 -26 18 -36z m1063 13 c-17 -18 -27 -22 -36 -14 -10 8 -7 16 14
34 36 31 54 14 22 -20z m-1320 11 c0 -8 -4 -17 -8 -20 -13 -8 -35 11 -28 23
10 16 36 14 36 -3z m340 1 c0 -17 -45 -60 -59 -56 -5 2 2 18 17 36 29 35 42
41 42 20z m60 -30 c0 -11 13 -24 33 -32 l32 -14 -32 -7 c-25 -5 -33 -12 -33
-28 0 -11 -4 -27 -9 -35 -7 -11 -11 -5 -16 21 -6 30 -12 37 -38 42 l-32 7 32
14 c22 9 33 22 38 45 5 24 10 29 16 19 5 -8 9 -22 9 -32z m1170 23 c0 -23 -25
-27 -33 -6 -7 16 1 26 20 26 7 0 13 -9 13 -20z m-1374 -34 c21 -20 33 -40 29
-46 -5 -8 -20 1 -46 26 -21 20 -36 41 -33 46 8 13 13 10 50 -26z m1169 -16
c-26 -27 -55 -40 -55 -24 0 4 15 21 33 39 41 42 63 27 22 -15z m-614 22 c-15
-27 -38 -45 -45 -33 -3 5 6 19 21 30 35 25 36 25 24 3z m-231 -24 c0 -7 -11
-26 -25 -42 -28 -32 -33 -66 -10 -66 17 0 20 -16 5 -25 -6 -3 -13 1 -16 9 -9
22 -27 20 -20 -2 5 -13 -1 -22 -18 -30 -22 -10 -24 -9 -28 22 -4 37 8 53 37
48 16 -2 17 -1 6 7 -12 8 -12 12 3 26 10 10 24 28 33 41 17 26 33 31 33 12z
m-370 -44 c0 -7 14 -21 30 -31 17 -9 30 -20 30 -23 0 -20 -18 -16 -59 13 -25
17 -48 33 -50 34 -2 1 2 9 8 17 14 17 41 11 41 -10z m1280 11 c7 -9 11 -17 9
-18 -2 -1 -24 -16 -49 -33 -67 -45 -70 -47 -70 -30 0 8 15 24 34 35 18 12 36
30 39 41 6 24 20 26 37 5z m-870 -62 c-11 -14 -20 -20 -20 -13 0 7 -7 18 -17
25 -15 11 -15 13 3 31 18 18 20 18 37 1 17 -17 17 -19 -3 -44z m-270 2 c0 -9
10 -20 23 -25 l22 -9 -22 -7 c-13 -3 -23 -13 -23 -20 0 -8 -4 -14 -10 -14 -5
0 -10 7 -10 15 0 8 -7 15 -15 15 -8 0 -15 4 -15 9 0 5 7 11 15 15 8 3 15 12
15 21 0 8 5 15 10 15 6 0 10 -7 10 -15z m-262 -62 c53 -46 62 -52 62 -48 0 3
9 -3 20 -13 12 -11 44 -32 73 -47 29 -16 55 -33 58 -38 3 -5 9 -8 13 -8 22 3
36 0 36 -10 0 -16 -35 -2 -119 48 -85 50 -171 113 -171 125 0 12 5 10 28 -9z
m492 -24 c0 -10 -4 -19 -10 -19 -12 0 -31 35 -24 43 11 11 34 -5 34 -24z m371
-9 c11 0 0 -31 -20 -53 -9 -11 -14 -30 -13 -43 2 -16 -2 -24 -11 -24 -17 0
-14 49 5 125 10 38 11 39 21 18 5 -13 14 -23 18 -23z m619 10 c-45 -38 -150
-103 -156 -98 -2 3 26 25 63 49 38 24 77 51 87 61 11 10 25 18 30 18 6 0 -5
-14 -24 -30z m-854 -81 c10 -17 -13 -36 -27 -22 -12 12 -4 33 11 33 5 0 12 -5
16 -11z m50 -56 c-12 -12 -29 15 -21 34 7 17 8 16 18 -5 5 -12 7 -25 3 -29z
m-307 -43 c13 -7 10 -9 -11 -10 -16 0 -28 4 -28 8 0 4 -10 8 -21 9 -12 1 -26
6 -32 12 -11 11 68 -5 92 -19z m330 -62 c1 -5 -17 -8 -39 -8 -48 0 -51 10 -7
30 32 15 43 10 46 -22z m132 15 l34 -17 -38 -9 c-44 -11 -51 -7 -42 22 8 25 4
25 46 4z"/>
<path d="M1713 2143 c-15 -6 -17 -29 -4 -38 10 -6 41 21 41 36 0 10 -17 11
-37 2z"/>
<path d="M1748 2085 c-37 -35 -29 -48 12 -22 17 10 22 9 30 -3 10 -17 12 -16
27 28 10 30 10 32 -10 32 -12 0 -39 -16 -59 -35z"/>
<path d="M1810 2480 c0 -5 -6 -7 -14 -4 -20 8 -53 -43 -38 -58 8 -8 14 -4 22
16 5 15 14 25 18 22 4 -2 13 4 20 15 7 11 8 19 2 19 -5 0 -10 -4 -10 -10z"/>
<path d="M867 1767 c-14 -28 -26 -52 -24 -53 5 -5 107 19 107 25 -1 3 -7 17
-14 30 -13 24 -14 24 -20 4 -4 -12 -13 -24 -21 -27 -19 -7 -19 -1 0 27 8 12
11 27 7 34 -5 7 -18 -8 -35 -40z"/>
<path d="M2096 1801 c-3 -4 1 -17 9 -27 19 -25 19 -35 0 -28 -8 3 -17 15 -21
27 -6 20 -7 20 -20 -4 -7 -13 -13 -27 -14 -30 0 -6 103 -30 108 -25 3 4 -48
96 -53 96 -2 0 -6 -4 -9 -9z"/>
<path d="M1472 1528 c-34 -34 6 -90 48 -68 35 19 20 80 -20 80 -9 0 -21 -5
-28 -12z"/>
<path d="M2082 1253 c-29 -4 -32 -7 -26 -26 10 -34 21 -41 29 -18 3 12 13 21
21 21 18 0 18 -9 0 -29 -10 -11 -12 -22 -6 -30 6 -11 12 -6 23 21 8 20 20 39
26 42 6 4 11 11 11 17 0 9 -16 9 -78 2z"/>
<path d="M840 1252 c0 -5 6 -15 14 -21 8 -6 19 -25 26 -42 9 -21 16 -27 23
-20 7 7 5 16 -6 29 -21 22 -21 32 -4 32 8 0 19 -10 24 -22 11 -23 11 -23 22 6
6 16 10 30 9 31 -10 9 -108 15 -108 7z"/>
<path d="M1238 956 c-20 -14 -24 -36 -8 -36 6 0 10 7 10 15 0 8 5 14 11 13 6
-2 14 3 16 10 6 16 -7 15 -29 -2z"/>
<path d="M510 2460 c0 -15 5 -20 18 -18 9 2 17 10 17 18 0 8 -8 16 -17 18 -13
2 -18 -3 -18 -18z"/>
<path d="M2457 2474 c-14 -15 -6 -34 14 -34 14 0 19 5 17 17 -3 18 -20 27 -31
17z"/>
<path d="M583 2394 c-3 -8 2 -23 11 -32 15 -15 17 -15 32 0 21 21 11 48 -16
48 -11 0 -23 -7 -27 -16z"/>
<path d="M2363 2394 c-3 -8 2 -23 11 -32 15 -15 17 -15 32 0 21 21 11 48 -16
48 -11 0 -23 -7 -27 -16z"/>
<path d="M583 594 c-3 -8 2 -23 11 -32 15 -15 17 -15 32 0 21 21 11 48 -16 48
-11 0 -23 -7 -27 -16z"/>
<path d="M2363 594 c-3 -8 1 -22 9 -30 12 -12 17 -12 33 -1 23 17 14 47 -15
47 -11 0 -23 -7 -27 -16z"/>
</g>
</svg>
